<?xml version="1.0" encoding="UTF-8" standalone="no"?>
<svg xmlns="http://www.w3.org/2000/svg"
  xmlns:xlink="http://www.w3.org/1999/xlink" style="isolation:isolate" viewBox="400.5 809 941 1015" width="941pt" height="1015pt">
  <path d=" M 607 1184.5 L 657 1261 L 740 1287 L 795 1348 L 795 1372 L 769 1372 L 623 1444.5 L 515 1487 L 503 1496.5 L 729 1771.5 L 758 1800.5 L 845 1818.5 L 868 1818.5 L 888 1800.5 L 991 1571.5 L 1009 1580.5 L 1110 1668.5 L 1203 1573.5 L 1222 1553.5 L 1249 1573.5 L 1292 1518.5 L 1312 1538.5 L 1336 1499.5 L 1188 1396.5 L 1162 1386.5 L 1060 1319.5 L 917 1219.5 L 876 1191.5 L 850 1180.5 L 823 1172.5 L 802 1156.5 L 769 1101.5 L 707.72 1134.5 M 406 893 M 607 1184.5 L 540 1205.5 L 490.389 1211.5 L 447.87 1205.5 L 429 1041.5 L 406 893 L 585 814.5 M 585 814.5 L 643 941.5 L 663 997.5 L 663 1015.5 L 668 1041.5 L 681 1071.5 L 707.72 1134.5" fill-rule="evenodd" fill="none" vector-effect="non-scaling-stroke" stroke-width="11" stroke="rgb(70,70,255)" stroke-linejoin="round" stroke-linecap="round" stroke-miterlimit="3"/>
</svg>